<?xml version="1.0" encoding="UTF-8"?>
<svg viewBox="0 0 48 48" xmlns="http://www.w3.org/2000/svg" xmlns:xlink="http://www.w3.org/1999/xlink">
 <defs>
  <linearGradient id="a">
   <stop offset="0"/>
   <stop stop-opacity="0" offset="1"/>
  </linearGradient>
  <linearGradient id="d" x2="0" y1="-150.7" y2="327.66" gradientUnits="userSpaceOnUse">
   <stop stop-opacity="0" offset="0"/>
   <stop offset=".5"/>
   <stop stop-opacity="0" offset="1"/>
  </linearGradient>
  <linearGradient id="e">
   <stop stop-color="#f5f5f5" offset="0"/>
   <stop stop-color="#e9e9e9" offset="1"/>
  </linearGradient>
  <linearGradient id="h" x1="23.136" x2="36.26" y1="11.056" y2="26.208" gradientUnits="userSpaceOnUse" xlink:href="#e"/>
  <linearGradient id="g" x1="35.004" x2="27.273" y1="10.957" y2="24.144" gradientTransform="matrix(-.97723 0 0 .99588 50.603 9.1156)" gradientUnits="userSpaceOnUse" xlink:href="#e"/>
  <radialGradient id="b" cx="605.71" cy="486.65" r="117.14" gradientTransform="matrix(-2.7744 0 0 1.9697 112.76 -872.89)" gradientUnits="userSpaceOnUse" xlink:href="#a"/>
  <radialGradient id="c" cx="605.71" cy="486.65" r="117.14" gradientTransform="matrix(2.7744 0 0 1.9697 -1891.6 -872.89)" gradientUnits="userSpaceOnUse" xlink:href="#a"/>
  <radialGradient id="f" cx="29.496" cy="27.645" r="11.516" gradientTransform="matrix(1 0 0 .34649 -5.1771e-17 18.067)" gradientUnits="userSpaceOnUse" xlink:href="#a"/>
 </defs>
 <g transform="matrix(.015187 0 0 .020868 32.508 31.904)" opacity=".62887">
  <path d="m-1559.3-150.7h1339.6v478.36h-1339.6z" fill="url(#d)" opacity=".40206"/>
  <path d="m-219.62-150.68v478.33c142.87 0.90045 345.4-107.17 345.4-239.2s-159.44-239.13-345.4-239.13z" fill="url(#c)" opacity=".40206"/>
  <path d="m-1559.3-150.68v478.33c-142.87 0.90045-345.4-107.17-345.4-239.2s159.44-239.13 345.4-239.13z" fill="url(#b)" opacity=".40206"/>
 </g>
 <g transform="matrix(.015187 0 0 .020868 42.258 21.904)">
  <path d="m-1559.3-150.7h1339.6v478.36h-1339.6z" fill="url(#d)" opacity=".40206"/>
  <path d="m-219.62-150.68v478.33c142.87 0.90045 345.4-107.17 345.4-239.2s-159.44-239.13-345.4-239.13z" fill="url(#c)" opacity=".40206"/>
  <path d="m-1559.3-150.68v478.33c-142.87 0.90045-345.4-107.17-345.4-239.2s159.44-239.13 345.4-239.13z" fill="url(#b)" opacity=".40206"/>
 </g>
 <path transform="matrix(1.3728 0 0 1.0924 -10.337 .23562)" d="m41.012 27.645a11.516 3.9901 0 1 1 -23.031 0 11.516 3.9901 0 1 1 23.031 0z" display="block" fill="url(#f)" opacity=".12025"/>
 <path d="m18.402 6.5709c-1.0713 0-1.9206 0.86341-1.9206 1.9136v15.062c0 1.0502 0.84933 1.8827 1.9206 1.8827h14.137c0.85632 1.1037 2.5227 2.8932 6.5176 4.3827-1.7786-2.0489-1.7748-3.4404-1.5743-4.3827h2.8967c1.0713 0 1.9521-0.83255 1.9521-1.8827v-15.062c0-1.0502-0.88082-1.9136-1.9521-1.9136h-21.977z" display="block" fill="url(#h)" stroke="#787878"/>
 <path d="m18.813 7.5755c-0.91816 0-1.2925 0.43693-1.2925 1.337v13.868c0 0.90002 0.72791 1.6135 1.6461 1.6135h13.884c0.7339 0.94591 1.3034 1.9745 3.515 3.0995-0.41317-0.89737-0.06495-2.1514 0.2165-3.0995h3.4927c0.91816 0 1.0164-0.35997 1.0164-1.26v-14.222c0-0.90002-0.24982-1.2864-1.168-1.2864l-21.31-0.05051z" display="block" fill="none" stroke="#fff"/>
 <path d="m29.776 15.464c1.0391 0 1.8628 0.87061 1.8628 1.9295v15.187c0 1.0589-0.82377 1.8984-1.8628 1.8984h-13.712c-0.83055 1.1129-2.4468 2.9173-6.3214 4.4192 1.7251-2.066 1.7214-3.469 1.5269-4.4192h-2.8095c-1.0391 0-1.8934-0.83949-1.8934-1.8984v-15.187c0-1.0589 0.85431-1.9295 1.8934-1.9295h21.316z" display="block" fill="url(#g)" stroke="#787878"/>
 <path d="m29.389 16.453c0.94245 0 1.235 0.46135 1.235 1.4218v14.204c0 0.96044-0.24209 1.3683-1.1846 1.3683h-13.901c-0.75332 1.0094-2.0678 2.5955-3.5113 3.2507 0.403-1.1668 0.24814-2.1363 0.17275-3.2507h-3.4069c-0.94245 0-1.2122-0.40787-1.2122-1.3683v-14.078c0-0.96044 0.26979-1.5481 1.2122-1.5481h20.596z" display="block" fill="none" stroke="#fff"/>
</svg>
